<svg xmlns="http://www.w3.org/2000/svg" viewBox="0 0 385.92 258.64"><defs><style>.cls-1{fill:#997f67;}.cls-2{fill:#fafafa;}</style></defs><title>Asset 9</title><g id="Layer_2" data-name="Layer 2"><g id="Layer_1-2" data-name="Layer 1"><path class="cls-1" d="M96.15,71.4A106.92,106.92,0,0,1,281.44,56.83a20.1,20.1,0,0,1,10.11-2.76,116.92,116.92,0,0,0-202,8.24,45,45,0,0,1,5.22,6.75C95.28,69.83,95.74,70.61,96.15,71.4Z"/><path class="cls-2" d="M193,220.5a103.35,103.35,0,0,0,76.91-34.26,23.47,23.47,0,0,1-4.54.45c-.38,0-.76,0-1.14,0a97.5,97.5,0,0,1-8.29,7.57l-1.17-1.55-.12.09-11.31-15c-.2.2-.4.4-.61.58L254,193.25l-.15.11,1.2,1.58a100.71,100.71,0,0,1-15.51,10.15l-1.05-1.67-.1.06-10.81-18.12-.9.08,11,18.46-.18.11,1,1.61a98.43,98.43,0,0,1-17,6.83l-.72-1.83-.1,0-9.93-27.54c-.34-.12-.68-.26-1-.41L219.9,211l-.21.08.69,1.75A99.89,99.89,0,0,1,202,216.19l-.1-1.8h-.12l-1.44-38.22c-.3-.3-.58-.6-.85-.91l1.48,39.17h-.21l.11,1.85c-2.73.21-5.48.32-8.27.31h-.21l-2.69-.05q-3.73-.12-7.39-.51l.29-2-.12,0,5.87-35.2c-.3.2-.6.39-.91.57l-5.76,34.51-.21,0-.29,2a99.57,99.57,0,0,1-17.89-3.8l.41-1.81-.12,0,6.37-25.53-.83,0-6.32,25.31-.21-.05-.39,1.71a98.6,98.6,0,0,1-16.86-7.25l.8-1.86-.07,0,9.59-19.9-.77-.26-9.56,19.84-.23-.11-.76,1.77a100.07,100.07,0,0,1-15.05-10.34l1.24-1.4-.09-.08,14.11-15.3-.61-.53-14.1,15.29-.16-.14-1.26,1.42a100.06,100.06,0,0,1-12.76-13l-.72-.89c-.22-.27-.43-.54-.64-.82a41.22,41.22,0,0,1-4.5.46A103.5,103.5,0,0,0,193,220.5Z"/><path class="cls-1" d="M274.88,185.61a106.87,106.87,0,0,1-169.26-7,33.19,33.19,0,0,1-14.25-3.86,116.91,116.91,0,0,0,194.09,13.6l-.92,0A15.86,15.86,0,0,1,274.88,185.61Z"/><path class="cls-2" d="M276.54,62.52A12.2,12.2,0,0,1,278.83,59,103.56,103.56,0,0,0,98,75.5a35,35,0,0,1,1.66,6.2A96.81,96.81,0,0,1,103.92,72l1.84.71,0,0,45.9,21.22c.27-.17.55-.34.84-.5L106.08,71.91l.1-.27L104.44,71a100.45,100.45,0,0,1,9.8-15.27l1.5,1.23.06-.08,39.76,35.07.86-.32-40.1-35.37.15-.18L115,54.8a99.54,99.54,0,0,1,12.45-13l1.26,1.56.08-.07,35.77,46.88,1,0L129.37,42.77l.18-.14L128.26,41a100.41,100.41,0,0,1,15.08-10.64l1,1.63.11-.07L180,88.69c.23-.15.46-.28.7-.41L145.18,31.52l.17-.11-1-1.58a99.7,99.7,0,0,1,16.88-7.48l.79,2,.12,0,21.44,56.45.26,6.4c.26-.07.53-.12.8-.17l-.16-3.84,1.4,3.69c.28,0,.56,0,.85,0l-2.35-6.2L181.9,19.91h.2L182,17.79a99.25,99.25,0,0,1,11.37-.6q3.66,0,7.26.29l-.25,1.87.14,0-5.56,40.34c.33-.54.67-1.06,1-1.56l5.33-38.67.19,0,.25-1.94A99.31,99.31,0,0,1,220.28,21l-.5,2.12.14,0-6.48,26.23h.83l6.43-26,.19.05.49-2.07a99.08,99.08,0,0,1,17.7,7.17l-.9,1.94.13.06L227.66,53c.24.13.47.27.7.41L239,30.81l.18.09.87-1.89a99.67,99.67,0,0,1,15.35,10.18l-1.28,1.38.11.11-18.5,19.77a7.37,7.37,0,0,1,.47.67l18.62-19.89.14.12,1.33-1.44a100.54,100.54,0,0,1,13.39,13.35l-1.45,1.08.09.12-27,20.05.12.91,27.36-20.31.11.15,1.49-1.12A96.33,96.33,0,0,1,276.54,62.52ZM183.45,78.19,162.87,24l.19-.08L162.3,22a99.17,99.17,0,0,1,18.55-4.09L181,20h.13Z"/><path class="cls-2" d="M145.63,99.68l-45.53-10c0,.27,0,.54,0,.81l45.1,9.93C145.3,100.15,145.46,99.91,145.63,99.68Z"/><path class="cls-2" d="M191.57,159.39l0,.18s0-.09,0-.13A.07.07,0,0,1,191.57,159.39Z"/><path class="cls-2" d="M82.81,108.44c-.93,1-1.8,2.14-2.62,3.27a27.27,27.27,0,0,0,3.75-4.42l.15-.22C83.65,107.52,83.22,108,82.81,108.44Z"/><path class="cls-2" d="M82.81,108.44c-.93,1-1.8,2.14-2.62,3.27a27.27,27.27,0,0,0,3.75-4.42l.15-.22C83.65,107.52,83.22,108,82.81,108.44Z"/><path class="cls-2" d="M292.72,177.85c.57-.08,1.1-1.18,1.1-1.74V176C293.46,176.62,293.09,177.24,292.72,177.85Zm4.9-113c.61,1.2,1.19,2.42,1.74,3.64,0-.45,0-.89,0-1.34C299.46,66.16,298.86,65.35,297.62,64.8Z"/><path class="cls-2" d="M245.41,135.92c0-.28-.07-.57-.11-.86-.23-1.65-.52-3.35-.89-5.06a53.62,53.62,0,0,0-2.84-9.35,8.93,8.93,0,0,0-.35-.85,27.73,27.73,0,0,0-6.79-10,13.78,13.78,0,0,0-1.35-1.07,15.12,15.12,0,0,0-9.1-3,15.89,15.89,0,0,0-5.7,1.18,11.64,11.64,0,0,0-3.23,1.85l0,0a5.3,5.3,0,0,0-.81.84,4.26,4.26,0,0,0-.51.82,3,3,0,0,0-.24,1.12,6.68,6.68,0,0,1,0,.68s0-.69-.1-1.79c0-.47,0-1-.06-1.61-.06-1.56-.15-3.47-.26-5.32,9.26-2.72,17.51-7.35,18.58-20.87,0-.35,0-.7.06-1.06,0-.66.06-1.33.06-2a23.6,23.6,0,0,0-2.58-11,7.68,7.68,0,0,0-.41-.74,17.12,17.12,0,0,0-4.7-5.34c-.22-.17-.44-.33-.67-.48a17,17,0,0,0-9.61-2.78,16,16,0,0,0-2,.12c-.3,0-.58.08-.86.14-8.6,1.65-12.9,11.68-11.48,39.64,0,.09,0,.19,0,.28h-.89a17.45,17.45,0,0,1-7.68-1.84q-.56-.24-1.11-.42a8.3,8.3,0,0,0-2.89-.53,3.1,3.1,0,0,0-.76.09,2.76,2.76,0,0,0-.75.31,1.32,1.32,0,0,0-.32.2,2.76,2.76,0,0,0-.78.89h0a2.64,2.64,0,0,0,.12,2.79,3.3,3.3,0,0,0,.85.86,3.88,3.88,0,0,0,.62.4,27.79,27.79,0,0,0,3,1.37,18.7,18.7,0,0,0,1.89.61,17.65,17.65,0,0,0,1.89.4l.92.14.57.07,1,.1c1.19.12,2.53.23,4.15.38,0,.12,0,.23,0,.35.07,1.24.13,2.4.17,3.51,0,.33,0,.65,0,1s0,.54,0,.8c0,.53,0,1,0,1.55.07,3.33,0,6.22-.05,9.21,0,.53,0,1.07-.05,1.61,0,.27,0,.55,0,.83,0,.6,0,1.22-.05,1.85,0,.29,0,.58,0,.88-.06,2.4-.1,5-.1,8.1,0,1,0,2,0,3l0,1.63c0,.1,0,.21,0,.32a78.55,78.55,0,0,0,1.87,16.74c.21.84.44,1.67.7,2.47a29.74,29.74,0,0,0,1.9,4.73c3.09,6.11,8.24,10.35,16.77,11.34l1,.1c.95.08,1.94.12,3,.12a16.53,16.53,0,0,0,12-5.24q.31-.3.6-.63a30.6,30.6,0,0,0,6-10.41c.16-.44.31-.88.45-1.33.1-.28.19-.57.27-.85a47.16,47.16,0,0,0,1.68-8.35c0-.29.06-.57.08-.85.15-1.51.22-3,.22-4.48A61,61,0,0,0,245.41,135.92Zm-33.1-39.84c-.17-2.3-.28-5.12-.34-7.87q0-1.15-.06-2.28c0-1.94,0-3.77,0-5.24,0-1.9.58-13.15,4.67-13.15a7.28,7.28,0,0,1,3.73,1.19,5.81,5.81,0,0,1,.68.46,11.22,11.22,0,0,1,3.22,3.66c.14.25.27.5.39.76a12.77,12.77,0,0,1,1.19,5.48,25.23,25.23,0,0,1-1.07,7.82c-.16.48-.34,1-.53,1.39-2.25,5.24-6.66,7.43-11.7,9.34,0-.2,0-.4-.05-.61S212.33,96.41,212.31,96.08ZM233,142.94a26.79,26.79,0,0,1-.32,3.91c-.05.31-.1.62-.16.94a32.5,32.5,0,0,1-3.82,10.6c-.16.27-.33.53-.51.79-1.8,2.68-4.08,4.51-6.73,4.51-6.72,0-9.06-16.22-9.06-22.07,0-1,0-2.12,0-3.29,0-.48,0-1,.05-1.48,0-1.17.09-2.39.17-3.63l.06-.86c.06-.8.13-1.62.21-2.43,0-.34.06-.67.1-1s.09-.81.15-1.21.06-.54.1-.81a40.51,40.51,0,0,1,2.34-9.72c.11-.26.23-.52.34-.77s.25-.5.38-.74a12.84,12.84,0,0,1,.67-1.1,5.23,5.23,0,0,1,4.3-2.62,4.78,4.78,0,0,1,1.87.39,5.35,5.35,0,0,1,.93.52,12.69,12.69,0,0,1,3.92,5.17l.39.86a57.82,57.82,0,0,1,3.45,12.74c.05.3.1.59.14.88a79.74,79.74,0,0,1,1,9.37c0,.33,0,.63,0,.9Z"/><path class="cls-2" d="M192.19,150.76a30.36,30.36,0,0,0-2.78-8.51,65.4,65.4,0,0,0-5.07-8.61l-.47-.68-.75-1.08-.81-1.12c-.32-.45-.65-.89-1-1.34-.17-.24-.35-.49-.54-.73-1.31-1.75-2.64-3.47-3.93-5.15l-.6-.77c-.5-.65-1-1.29-1.48-1.93l-.82-1.07-1.23-1.65-.49-.67c-3.3-4.55-5.66-8.53-5.66-11.62a2.87,2.87,0,0,1,.08-.7,2.23,2.23,0,0,1,.31-.75,4.34,4.34,0,0,0,.85-1.65,2.91,2.91,0,0,0,.07-.7,1,1,0,0,0-.07-.38,1.26,1.26,0,0,0-.22-.41,2.87,2.87,0,0,0-2.05-1.11c-.22,0-.44,0-.66,0a15.18,15.18,0,0,0-7.73,2.07,8.41,8.41,0,0,0-.9.62c-3.26,2.46-4.88,6.48-4.88,11.46a12.79,12.79,0,0,0,.17,2.08,7.35,7.35,0,0,0,.19.84,9.74,9.74,0,0,0,4.61,6l0,.15c-.05.36-.13.76-.22,1.18a53.94,53.94,0,0,1-2.86,8.5l-.56,1.28c-3.31,7.39-8.3,15.05-13,15.05a10.41,10.41,0,0,1-4.53-1.17,18.5,18.5,0,0,0,1.87-4.33c.12-.37.23-.76.34-1.15a40.78,40.78,0,0,0,1.59-9.43,11.39,11.39,0,0,0-.29-2.51,7.62,7.62,0,0,0-.2-.79,12,12,0,0,0-2.37-4.51c-.23-.26-.47-.52-.73-.77a10,10,0,0,0-7.08-2.67,12.69,12.69,0,0,0-9.24,3.45,10.47,10.47,0,0,0-.78.84,14.87,14.87,0,0,0-3.13,9.6,10.51,10.51,0,0,0,.36,2.61c.07.25.14.51.23.77,1.33,4.07,4.75,8.42,8.42,11.48l.66.54c.58.46,1.15.87,1.73,1.25C123.61,158.28,117.47,163,111,163a5.12,5.12,0,0,1-3.13-1.33,6.19,6.19,0,0,1-.63-.55c-2.54-2.44-5.13-7.52-6-16.41,0-.27,0-.54-.07-.82C101,142,101,140.09,101,138a61.7,61.7,0,0,1,.85-10.86c0-.27.1-.54.16-.81,1.72-8.58,5.7-13.54,12.14-14.76a16.79,16.79,0,0,1,3.32-.31h0a15.48,15.48,0,0,1,5.31.81,10.87,10.87,0,0,1,2.34,1.16h0a16.9,16.9,0,0,1,3.74,3.72,3.73,3.73,0,0,0,2.78,1c.73,0,2.48-1.17,1.6-2.77q-.18-.41-.39-.81c-.17-.3-.34-.6-.52-.89-3.6-5.8-11.23-9-17.64-9a33.24,33.24,0,0,0-16,3.89c-.38.2-.75.42-1.12.64a31.14,31.14,0,0,0-4.16,3l-1.56,1.43a31.61,31.61,0,0,0-2.46,2.72,23,23,0,0,0-1.47,2,30,30,0,0,0-1.82,3,36.46,36.46,0,0,0-4.4,17.45c0,11.8,5.82,24.16,16.82,28.48A22.18,22.18,0,0,0,103,168.3a24.91,24.91,0,0,0,4.21.35h.5c14.68-.18,20.58-8.53,24.49-14.45a29.7,29.7,0,0,0,6.28,1c10,0,18.46-14.07,22.77-26.14q.22-.6.42-1.2c.06-.19.13-.38.19-.57l.31.26c.21.18.42.36.63.56,2.95,2.72,5.51,6.81,7.56,11.2.12.25.24.5.35.75.74,1.64,1.41,3.31,2,5,.14.43.29.85.43,1.28a42.58,42.58,0,0,1,2.46,12c0,.1,0,.2,0,.3a8.74,8.74,0,0,1-1.06,4.26c-2.28,4-7.63,4.21-9.89,4.21a10.9,10.9,0,0,1-1.44-.11l-.82-.15a12.39,12.39,0,0,1-6-2.9,5,5,0,0,1-.54-.6,4.79,4.79,0,0,1-1.17-3.11c0-2.38,5.36-3.58,8.37-4.7a8.38,8.38,0,0,0,1.28-.56,9.54,9.54,0,0,0,.81-.51,3.84,3.84,0,0,0,1.56-1.7,1.44,1.44,0,0,0,.11-.57,1.37,1.37,0,0,0-.13-.59c-.49-1.17-2.43-2-4.69-2a27,27,0,0,0-5.18.52,20,20,0,0,0-2.15.55h0a11.81,11.81,0,0,0-6.95,5,8,8,0,0,0-.71,1.5,11,11,0,0,0-.64,3.83c0,3.19,1.71,5.88,4.3,8a6,6,0,0,0,.63.5,26.29,26.29,0,0,0,7.91,3.94l.78.23a29.27,29.27,0,0,0,7.86,1.19,27.84,27.84,0,0,0,3.76-.26c.29,0,.57-.08.86-.13,7.39-1.22,14.29-5.36,17.69-11.68a17.58,17.58,0,0,0,1.35-3.15l0-.18a.07.07,0,0,0,0,.05,18.39,18.39,0,0,0,.83-5.1,5.72,5.72,0,0,0,0-.59A18.93,18.93,0,0,0,192.19,150.76Zm-62-5c-2.93-1.6-4.41-7.11-4.64-10.05,0-.28,0-.53,0-.76v-.09c0-2.9,1.2-6.34,3.65-6.34,1.73,0,2.7,1.91,3.19,3.8.07.26.13.53.18.79a12.7,12.7,0,0,1,.28,2.43A34.82,34.82,0,0,1,130.18,145.71Z"/><path class="cls-2" d="M90.15,87.86a33.37,33.37,0,0,1-1.61,9.86,36.9,36.9,0,0,1-1.47,3.93,34.35,34.35,0,0,1-3,5.42c-.44.45-.87.9-1.28,1.37-.93,1-1.8,2.14-2.62,3.27a25.32,25.32,0,0,1-3.48,2.81l-.61.39a16.33,16.33,0,0,1-8.74,2.46,10.46,10.46,0,0,1-3.58-.66,11.34,11.34,0,0,1-3.29-1.82A9.78,9.78,0,0,1,58.08,112a7.47,7.47,0,0,1-.95-3.73,6.29,6.29,0,0,1,.95-3.21,3.51,3.51,0,0,1,3.29-1.61l6,1.32a8.58,8.58,0,0,0,4.89-1.32,9.9,9.9,0,0,0,3.14-3.36,15.15,15.15,0,0,0,1.68-4.53,23.35,23.35,0,0,0,.52-4.68A27.34,27.34,0,0,0,75.32,79.6a25,25,0,0,0-6.21-8.55,27,27,0,0,0-9.35-5.33,36.21,36.21,0,0,0-11.69-1.83,32.08,32.08,0,0,0-9.72,1.46,23.8,23.8,0,0,0-8,4.32,20,20,0,0,0-5.41,7.15,23.94,23.94,0,0,0-2,10q0,11.55,9.21,17.83Q37.25,108,44,111.89a99.34,99.34,0,0,1,12.71,8.69A52.12,52.12,0,0,1,66.85,131.4,23.5,23.5,0,0,1,71,145.13a32.95,32.95,0,0,1-8.55,22.21,30.86,30.86,0,0,1-9.49,7A27.42,27.42,0,0,1,40.91,177a32,32,0,0,1-7.45-.87,21.91,21.91,0,0,1-6.57-2.71,14.21,14.21,0,0,1-4.68-4.67,13,13,0,0,1-1.75-6.94,13.88,13.88,0,0,1,1.38-6A4.45,4.45,0,0,1,26,152.88c.88,0,1.63.7,2.26,2.11A33.45,33.45,0,0,0,31,159.74a17.74,17.74,0,0,0,4.82,4.75c2,1.41,4.92,2.12,8.62,2.12a21.61,21.61,0,0,0,4.75-.51,11.74,11.74,0,0,0,4-1.68A8.91,8.91,0,0,0,56,161.28a10,10,0,0,0,1.1-4.9,12.82,12.82,0,0,0-4.24-9.5,60.59,60.59,0,0,0-10.59-8q-6.36-3.87-13.73-8a93.16,93.16,0,0,1-13.74-9.28A47.84,47.84,0,0,1,4.24,109.63,30.51,30.51,0,0,1,0,93.26,29.73,29.73,0,0,1,4.6,76.68,40.49,40.49,0,0,1,16.44,64.84a54.41,54.41,0,0,1,16.14-7.08,68.88,68.88,0,0,1,17.54-2.34,44.35,44.35,0,0,1,13.51,2.26,46.41,46.41,0,0,1,13,6.51,36.69,36.69,0,0,1,8.25,8.1c.52.69,1,1.39,1.46,2.12a24.41,24.41,0,0,1,3.79,12.91C90.15,87.5,90.15,87.68,90.15,87.86Z"/><path class="cls-2" d="M272.2,84.2c0,5.55-4.24,8-8.18,8a7.69,7.69,0,0,1-7.82-7,8.06,8.06,0,0,1-.07-.87v-.3c-.15-3.65,3.07-7.45,8.33-7.45a9,9,0,0,1,3.79.76,6.78,6.78,0,0,1,.84.45A7.22,7.22,0,0,1,272.2,84.2Z"/><path class="cls-2" d="M383,148.84c-1.7,0-3.6.9-4,2-2.33,6.43-11.54,18-19.87,18-7.6,0-11.54-13-11-20.75a65.07,65.07,0,0,0,9.21.73c10.81,0,18.12-12.56,18.12-21.91,0-8.33-5.85-20.61-15.34-20.61-19.73,0-25.72,28.64-25.72,44.28a25.52,25.52,0,0,0,.17,2.87c-2.54,5.28-6,10-11,10-5.41,0-14.32-17.83-14.32-28.94,6-2.63,17.68-8.62,17.68-16.07,0-3.8-3.07-8.91-10.08-8.91A21,21,0,0,0,309.7,111a33.28,33.28,0,0,0-9.76,5.74,22.41,22.41,0,0,0-3.05,3.15c.19-7.73.66-15.42,1.14-23.08v0c.6-9.42,1.21-18.83,1.33-28.31-.55-1.22-1.13-2.44-1.74-3.64A11.81,11.81,0,0,0,293,64c-2.52,0-4.9.38-6.27,1.32a2.45,2.45,0,0,0-1.18,1.89c-.06.9-.11,1.81-.17,2.72q-.25,4-.52,8.09-.4,6.14-.83,12.3l-.06.88q-.57,8.07-1.11,16.18l-.06.81q-.57,8.49-1.08,17c0,.27,0,.53-.05.8q-.53,9-.93,18.06l0,.82-.12,2.85c-1.39,4.93-3.17,10.4-5.38,14-.14.24-.29.46-.44.68-1.36,2-2.89,3.31-4.57,3.31s-3.09-2.17-3.42-7.07c0-.29,0-.59,0-.91,0-.52,0-1.08,0-1.66,0-4.41.15-9.43.39-14.66,0-.28,0-.56,0-.83.26-5.42.61-11,1-16.41,0-.26,0-.53.05-.79.24-3.32.48-6.54.72-9.54.15-1.46-.44-3.07-2.19-3.21a74.67,74.67,0,0,0-8.18-.73c-2.64,0-3.8,1.6-3.8,4.38v4.38c0,1,0,1.95,0,2.91,0,.27,0,.54,0,.81,0,2.31-.1,4.54-.18,6.72-.11,2.8-.25,5.51-.39,8.17,0,.27,0,.55,0,.82-.24,4.49-.5,8.87-.66,13.36l0,.88c-.08,2.42-.13,4.87-.13,7.39,0,.36,0,.72,0,1.07a23.33,23.33,0,0,0,.81,5.48q.21.79.48,1.53c1.81,5.05,5.36,8.31,9.65,8.8a8.92,8.92,0,0,0,1.16.07h.11c4.34,0,8.11-2.27,11.25-5.65a30.54,30.54,0,0,0,3.33-4.3c0,2.12-.06,4.25-.07,6.37,0,.85,0,1.71,0,2.56a2.21,2.21,0,0,0,1,2,6.9,6.9,0,0,0,3.59.71c1,0,2-.07,2.71-.07,2.63,0,2.63-.44,5.4-.44h.07c.37-.61.74-1.23,1.1-1.85,0-7.43.29-16.64.8-25.79v0c.45-8.11,1.08-16.18,1.83-22.89a20.88,20.88,0,0,1,3.27-3.59,46.47,46.47,0,0,1,10.13-7.13,9.37,9.37,0,0,1,3.7-1.11c1.31,0,3.65,2,3.65,3.8,0,3.68-3.59,6.68-7.9,8.94a48.69,48.69,0,0,1-7.29,3,2.56,2.56,0,0,0-1.76,2.48L301,140a48.16,48.16,0,0,0,.88,5.4c.8,2.78,1.56,5.28,2.31,7.54,5.07,15.42,9.28,19.2,19.61,19.2,4.74,0,9.42-4.37,13.14-10,3.51,8.31,10.56,15.38,19.87,15.38,13.59,0,25-11.84,28.79-24.11C386.67,150,385,148.84,383,148.84Zm-23.58-35.42c6.86,0,8.18,11.25,8.18,15.49,0,5.7-5.56,11.55-8.92,11.55-2,0-7.45-.59-9.49-.74C350.51,129.2,354.46,113.42,359.43,113.42Z"/><path class="cls-2" d="M96.58,218.65c3.26-1.49,6.46-3.07,9.6-4.71q1.14,1.08,2.31,2.13-2.05,4.94-3.86,10-1-.89-2.07-1.8l.84-2.31c-.9-.81-1.8-1.64-2.69-2.49l-2.17,1.09Zm9.46-2.33a14.91,14.91,0,0,1-1.58,1l-2.25,1.29c.63.59,1.25,1.17,1.88,1.74.36-.78.72-1.57,1.09-2.35.23-.49.61-1.18.9-1.68Z"/><path class="cls-2" d="M111.5,231.57q4.47-2.94,8.74-6.1c.84.59,1.68,1.17,2.53,1.74-.91,3.43-1.73,6.91-2.47,10.41-.76-.48-1.51-1-2.25-1.45.17-.8.34-1.6.52-2.39-1-.66-2-1.34-2.94-2l-2,1.4C112.93,232.63,112.22,232.11,111.5,231.57Zm8.91-3.74a15.76,15.76,0,0,1-1.4,1.26l-2,1.61,2.05,1.42c.25-.83.5-1.65.76-2.47.15-.52.44-1.26.65-1.79Z"/><path class="cls-2" d="M136.83,246.51c-.84-.37-1.67-.76-2.5-1.15q-.06-2.27-.06-4.5l-1.37-.69-1.83,3.58c-.77-.4-1.55-.8-2.31-1.21l4.74-8.89c1.15.62,2.31,1.22,3.48,1.79,2.15,1.07,3.26,2.46,2.47,4.23a2.92,2.92,0,0,1-2.88,1.77C136.63,243.13,136.72,244.82,136.83,246.51ZM135,239.39a1.43,1.43,0,0,0,2.1-.55c.48-1,.07-1.5-1-2l-1.23-.62-1.27,2.5Z"/><path class="cls-2" d="M157.49,243.44q-1.41,4.83-2.83,9.66l-2.47-.74c.42-1.36.85-2.71,1.27-4.07-1.24-.39-2.47-.79-3.7-1.22-.46,1.35-.93,2.69-1.39,4-.82-.28-1.64-.57-2.45-.87l3.48-9.46c.75.28,1.51.55,2.26.81-.44,1.28-.88,2.56-1.33,3.84,1.22.42,2.43.82,3.65,1.2.41-1.29.81-2.58,1.22-3.88Z"/><path class="cls-2" d="M168.18,252.41a4.11,4.11,0,0,0-.1,1.16c.07.65.49,1.15,1.46,1.32s1.53-.14,1.8-.73a5.4,5.4,0,0,0,.3-1.23l1-6.07q1.19.19,2.37.36c-.31,2.14-.61,4.28-.92,6.42a4.92,4.92,0,0,1-.61,1.85c-.68,1-2,1.56-4.28,1.16-2-.35-3.06-1.14-3.47-2.23a4.14,4.14,0,0,1-.06-2.27c.45-2.11.89-4.23,1.34-6.34.78.17,1.56.32,2.35.47Z"/><path class="cls-2" d="M184.17,255.75a6.28,6.28,0,0,0,2.93,1.05c.89,0,1.59-.26,1.61-1.07s-.67-1.21-2-1.59-3-1-2.88-3.11c.14-1.8,1.71-2.94,3.89-2.85,2.46.1,3.31,1.38,3.68,2.58l-2.22.53a1.65,1.65,0,0,0-1.56-1.36c-.72,0-1.28.26-1.32,1s.76,1.15,1.91,1.48c1.82.53,3.06,1.38,3,3.12,0,2.07-1.86,3.22-4.26,3.12a7.89,7.89,0,0,1-3.74-1.07Z"/><path class="cls-2" d="M214.21,250.12a2,2,0,0,1,2.43,1.61,2,2,0,0,1-1.78,2.32,1.93,1.93,0,0,1-2.43-1.63A2,2,0,0,1,214.21,250.12Z"/><path class="cls-2" d="M236,243.52a4.26,4.26,0,0,1,2.95-3.33c1.78-.7,3.5-.41,4.19,1.22a4.2,4.2,0,0,1,0,3,18.89,18.89,0,0,1-1.66,3.62c1.35-.52,2.69-1.06,4-1.63.21.48.41,1,.61,1.44-2.41,1-4.84,2-7.29,2.83l-.41-1.14a21.19,21.19,0,0,0,2.35-4.72,3.18,3.18,0,0,0,.13-2.36,1.06,1.06,0,0,0-1.52-.5,2,2,0,0,0-1.23,1.73C237.35,243.65,236.65,243.59,236,243.52Z"/><path class="cls-2" d="M259.59,235.59c1.86,3.14,1.24,5.11-1.14,6.42s-4.33.59-5.9-2.53-.79-5.12,1.23-6.23S257.8,232.57,259.59,235.59Zm-2.12,1.26c-1.21-2.14-2-2.61-2.92-2.1s-1,1.45.26,3.73c1.08,2,1.9,2.62,2.89,2.08S258.73,239.08,257.47,236.85Z"/><path class="cls-2" d="M269.54,233.2l1.57-1.1-3.78-5.32-1.36.95-.88-1.26c1.12-.78,2.22-1.57,3.32-2.39l4.81,6.48c.51-.38,1-.76,1.52-1.15l.93,1.22c-1.73,1.32-3.48,2.6-5.26,3.82Z"/><path class="cls-2" d="M280.26,220.57q-1.59-1.77-3.16-3.56,2.52-2.25,5-4.66l1.14,1.15c-1.16,1.15-2.33,2.26-3.51,3.35l1.31,1.44a3.92,3.92,0,0,1,1.2-2c1.62-1.54,3.32-1.43,4.59-.17,1.47,1.45,1.59,3.73-.64,5.82a7.29,7.29,0,0,1-3.54,1.94c-.12-.64-.24-1.26-.37-1.89a5.13,5.13,0,0,0,2.65-1.27,1.7,1.7,0,0,0,.17-2.61,1.43,1.43,0,0,0-2.21-.1,2.83,2.83,0,0,0-.81,1.66C281.46,220,280.86,220.27,280.26,220.57Z"/></g></g></svg>
